<?xml version="1.0" encoding="UTF-8"?>
<svg width="23px" height="23px" viewBox="0 0 23 23" version="1.1" xmlns="http://www.w3.org/2000/svg" xmlns:xlink="http://www.w3.org/1999/xlink">
    <g id="Assets" stroke="none" stroke-width="1" fill="none" fill-rule="evenodd">
        <g id="ICON_INSTALL" fill-rule="nonzero" fill="#FFFFFF">
            <path d="M11.5,18 C7.91014913,18 5,15.0898509 5,11.5 C5,7.91014913 7.91014913,5 11.5,5 C15.0898509,5 18,7.91014913 18,11.5 C18,15.0898509 15.0898509,18 11.5,18 Z M11.5,17 C14.5375661,17 17,14.5375661 17,11.5 C17,8.46243388 14.5375661,6 11.5,6 C8.46243388,6 6,8.46243388 6,11.5 C6,14.5375661 8.46243388,17 11.5,17 Z M11,12.2928932 L11,9 L12,9 L12,12.2928932 L13.6959564,10.5969369 L14.4030631,11.3040436 L12,13.7071068 L12,13.7118683 L11.8881664,13.8189404 L11.8535534,13.8535534 L11.8528005,13.8528005 L11.4888574,14.2012481 L11,13.7118683 L11,13.7071068 L8.59693685,11.3040436 L9.30404363,10.5969369 L11,12.2928932 Z" id="INSTALL"></path>
        </g>
    </g>
</svg>
