<?xml version="1.0" encoding="UTF-8"?>
<svg width="23px" height="23px" viewBox="0 0 23 23" version="1.1" xmlns="http://www.w3.org/2000/svg" xmlns:xlink="http://www.w3.org/1999/xlink">
    <g id="Assets" stroke="none" stroke-width="1" fill="none" fill-rule="evenodd" fill-opacity="0.66">
        <g id="ICON_PUBLISH" fill-rule="nonzero" fill="#D5D7DF">
            <path d="M11.5,5 C15.0898509,5 18,7.91014913 18,11.5 C18,15.0898509 15.0898509,18 11.5,18 C7.91014913,18 5,15.0898509 5,11.5 C5,7.91014913 7.91014913,5 11.5,5 Z M11.5,6 C8.46243388,6 6,8.46243388 6,11.5 C6,14.5375661 8.46243388,17 11.5,17 C14.5375661,17 17,14.5375661 17,11.5 C17,8.46243388 14.5375661,6 11.5,6 Z M12,10.7071068 L12,14 L11,14 L11,10.7071068 L9.30404363,12.4030631 L8.59693685,11.6959564 L11,9.29289322 L11,9.28813171 L11.1118336,9.18105959 L11.1464466,9.14644661 L11.1471995,9.14719949 L11.5111426,8.79875187 L12,9.28813171 L12,9.29289322 L14.4030631,11.6959564 L13.6959564,12.4030631 L12,10.7071068 Z" id="PUBLISH"></path>
        </g>
    </g>
</svg>
