<?xml version="1.0" encoding="UTF-8"?>
<svg width="23px" height="23px" viewBox="0 0 23 23" version="1.1" xmlns="http://www.w3.org/2000/svg" xmlns:xlink="http://www.w3.org/1999/xlink">
    <g id="Assets" stroke="none" stroke-width="1" fill="none" fill-rule="evenodd">
        <g id="ICON_GITHUB" fill="#FFFFFE">
            <path d="M11.6638832,5 C7.98418245,5 5,7.98377333 5,11.6647014 C5,14.6091984 6.90940218,17.1069272 9.55769023,17.9881898 C9.89112986,18.049559 10.012641,17.8437674 10.012641,17.667024 C10.012641,17.5086913 10.0069132,17.0897438 10.0036402,16.5337384 C8.14987945,16.9363207 7.75875271,15.640202 7.75875271,15.640202 C7.45558858,14.8702223 7.01863946,14.665249 7.01863946,14.665249 C6.41353858,14.2520293 7.06446184,14.2602119 7.06446184,14.2602119 C7.73338675,14.3072617 8.08523717,14.9471385 8.08523717,14.9471385 C8.67970071,15.965459 9.6452437,15.6712957 10.0249148,15.5006892 C10.0854658,15.0702861 10.2577089,14.7765319 10.4479536,14.6100167 C8.96813622,14.4418649 7.41222097,13.8699034 7.41222097,11.316124 C7.41222097,10.5886938 7.67201749,9.99341196 8.09832927,9.52782386 C8.0295957,9.35926296 7.80089294,8.68133722 8.16378982,7.76407138 C8.16378982,7.76407138 8.72306832,7.58487315 9.99627586,8.44731579 C10.5277336,8.29921131 11.0980586,8.2255682 11.6647014,8.2227043 C12.2309351,8.2255682 12.800851,8.29921131 13.333127,8.44731579 C14.6055163,7.58487315 15.1639765,7.76407138 15.1639765,7.76407138 C15.5276917,8.68133722 15.2989889,9.35926296 15.2306644,9.52782386 C15.6577945,9.99341196 15.9155454,10.5886938 15.9155454,11.316124 C15.9155454,13.8764495 14.3571753,14.4398193 12.8728575,14.604698 C13.1117885,14.8104896 13.3249444,15.2171632 13.3249444,15.8386292 C13.3249444,16.7297109 13.3167618,17.4485494 13.3167618,17.667024 C13.3167618,17.845404 13.4370456,18.0528321 13.7749856,17.9877806 C16.421228,17.1044725 18.3289937,14.6083802 18.3289937,11.6647014 C18.3289937,7.98377333 15.3448113,5 11.6638832,5" id="GITHUB"></path>
        </g>
    </g>
</svg>
