<?xml version="1.0" encoding="UTF-8"?>
<svg width="138px" height="138px" viewBox="0 0 138 138" version="1.1" xmlns="http://www.w3.org/2000/svg" xmlns:xlink="http://www.w3.org/1999/xlink">
    <g id="Assets" stroke="none" stroke-width="1" fill="none" fill-rule="evenodd">
        <g id="PUBLISH_SUCCESS" fill-rule="nonzero" fill="#4CD964">
            <path d="M69,138 C30.8923523,138 0,107.107648 0,69 C0,30.8923523 30.8923523,0 69,0 C107.107648,0 138,30.8923523 138,69 C138,107.107648 107.107648,138 69,138 Z M69,135 C105.450793,135 135,105.450793 135,69 C135,32.5492065 105.450793,3 69,3 C32.5492065,3 3,32.5492065 3,69 C3,105.450793 32.5492065,135 69,135 Z M39.6724597,72.3970376 L61.4008027,92.4240265 L101.224148,48.2017749 L103.453446,50.2093185 L61.5991973,96.686808 L37.6392613,74.6029624 L39.6724597,72.3970376 Z" id="CHECK"></path>
        </g>
    </g>
</svg>
