<?xml version="1.0" encoding="UTF-8"?>
<svg width="138px" height="138px" viewBox="0 0 138 138" version="1.1" xmlns="http://www.w3.org/2000/svg" xmlns:xlink="http://www.w3.org/1999/xlink">
    <g id="Assets" stroke="none" stroke-width="1" fill="none" fill-rule="evenodd">
        <g id="PUBLISH_FETCH_DUPL_OK" fill-rule="nonzero" fill="#007AFF">
            <path d="M69,138 C30.8923523,138 0,107.107648 0,69 C0,30.8923523 30.8923523,0 69,0 C107.107648,0 138,30.8923523 138,69 C138,107.107648 107.107648,138 69,138 Z M24.6824219,58.1577148 L21.2917969,58.1577148 L21.2917969,72.3256836 C21.2917969,77.0332031 24.6521484,80.3632812 30.1316406,80.3632812 C35.6111328,80.3632812 38.9714844,77.0332031 38.9714844,72.3256836 L38.9714844,58.1577148 L35.5959961,58.1577148 L35.5959961,72.0380859 C35.5959961,75.15625 33.6130859,77.3510742 30.1316406,77.3510742 C26.6501953,77.3510742 24.6824219,75.15625 24.6824219,72.0380859 L24.6824219,58.1577148 Z M50.9992187,63.909668 C48.7741211,63.909668 46.8366211,65.0146484 45.928418,66.7250977 L45.8678711,66.7250977 L45.8678711,64.0761719 L42.7042969,64.0761719 L42.7042969,85.2675781 L45.9738281,85.2675781 L45.9738281,77.3813477 L46.0495117,77.3813477 C46.9879883,79.1523438 48.7892578,80.1665039 51.0597656,80.1665039 C55.0558594,80.1665039 57.7047852,76.987793 57.7047852,72.0380859 C57.7047852,67.1035156 55.0407227,63.909668 50.9992187,63.909668 Z M50.1364258,77.3964844 C47.6388672,77.3964844 45.9586914,75.2470703 45.9586914,72.0380859 C45.9586914,68.859375 47.6388672,66.6948242 50.1364258,66.6948242 C52.6793945,66.6948242 54.3444336,68.8139648 54.3444336,72.0380859 C54.3444336,75.2924805 52.6793945,77.3964844 50.1364258,77.3964844 Z M66.2964844,80.1665039 C68.6124023,80.1665039 70.4288086,79.1069336 71.3672852,77.2905273 L71.427832,77.2905273 L71.427832,80 L74.606543,80 L74.606543,58.1577148 L71.321875,58.1577148 L71.321875,66.7250977 L71.2613281,66.7250977 C70.353125,64.9692383 68.5518555,63.909668 66.2662109,63.909668 C62.3155273,63.909668 59.6060547,67.1186523 59.6060547,72.0380859 C59.6060547,76.9575195 62.3155273,80.1665039 66.2964844,80.1665039 Z M67.1592773,66.6948242 C69.6719727,66.6948242 71.3521484,68.8291016 71.3521484,72.0380859 C71.3521484,75.2773438 69.6719727,77.3964844 67.1592773,77.3964844 C64.6163086,77.3964844 62.9512695,75.3076172 62.9512695,72.0380859 C62.9512695,68.7988281 64.6163086,66.6948242 67.1592773,66.6948242 Z M82.7138672,80.2270508 C84.8632812,80.2270508 86.8461914,79.0917969 87.7392578,77.3813477 L87.8149414,77.3813477 L87.8149414,80 L90.9482422,80 L90.9482422,69.0864258 C90.9482422,65.9228516 88.4204102,63.8793945 84.5151367,63.8793945 C80.8974609,63.8793945 78.2333984,65.953125 78.1425781,68.7988281 L81.2001953,68.7988281 C81.4575195,67.4365234 82.7138672,66.5585938 84.4243164,66.5585938 C86.4980469,66.5585938 87.6938477,67.5273438 87.6938477,69.3286133 L87.6938477,70.5395508 L83.4555664,70.7817383 C79.4897461,71.0239258 77.3554688,72.6586914 77.3554688,75.4438477 C77.3554688,78.2744141 79.550293,80.2270508 82.7138672,80.2270508 Z M83.6220703,77.6386719 C81.8056641,77.6386719 80.6401367,76.7001953 80.6401367,75.3681641 C80.6401367,73.9907227 81.7602539,73.1733398 83.8793945,73.0522461 L87.6938477,72.8100586 L87.6938477,74.0361328 C87.6938477,76.0947266 85.9379883,77.6386719 83.6220703,77.6386719 Z M95.1654297,60.3071289 L95.1654297,64.0761719 L92.8495117,64.0761719 L92.8495117,66.6645508 L95.1654297,66.6645508 L95.1654297,75.7919922 C95.1654297,78.8798828 96.4217773,80.0908203 99.6458984,80.0908203 C100.372461,80.0908203 101.099023,80.0302734 101.462305,79.9394531 L101.462305,77.3662109 C101.250391,77.3964844 100.720605,77.4418945 100.387598,77.4418945 C99.0555664,77.4418945 98.4500977,76.8061523 98.4500977,75.4438477 L98.4500977,66.6645508 L101.477441,66.6645508 L101.477441,64.0761719 L98.4500977,64.0761719 L98.4500977,60.3071289 L95.1654297,60.3071289 Z M114.428516,75.3227539 C113.989551,76.7001953 112.566699,77.5629883 110.750293,77.5629883 C108.177051,77.5629883 106.466602,75.7768555 106.466602,73.0522461 L106.466602,72.8554688 L117.713184,72.8554688 L117.713184,71.7353516 C117.713184,66.9067383 114.943164,63.8793945 110.538379,63.8793945 C106.05791,63.8793945 103.166797,67.1186523 103.166797,72.1137695 C103.166797,77.09375 106.042773,80.1967773 110.674609,80.1967773 C114.277148,80.1967773 117.092578,78.2138672 117.531543,75.3227539 L114.428516,75.3227539 Z M110.538379,66.5283203 C112.808887,66.5283203 114.367969,68.1328125 114.443652,70.5698242 L106.481738,70.5698242 C106.648242,68.1630859 108.283008,66.5283203 110.538379,66.5283203 Z" id="FETCH_DUPL"></path>
        </g>
    </g>
</svg>
