<?xml version="1.0" encoding="UTF-8"?>
<svg width="138px" height="138px" viewBox="0 0 138 138" version="1.1" xmlns="http://www.w3.org/2000/svg" xmlns:xlink="http://www.w3.org/1999/xlink">
    <g id="Assets" stroke="none" stroke-width="1" fill="none" fill-rule="evenodd">
        <g id="PUBLISH_DENY" fill-rule="nonzero" fill="#D62B4C">
            <path d="M69,138 C30.8923523,138 0,107.107648 0,69 C0,30.8923523 30.8923523,0 69,0 C107.107648,0 138,30.8923523 138,69 C138,107.107648 107.107648,138 69,138 Z M69,135 C105.450793,135 135,105.450793 135,69 C135,32.5492065 105.450793,3 69,3 C32.5492065,3 3,32.5492065 3,69 C3,105.450793 32.5492065,135 69,135 Z M33.0265882,99.0605846 L30.9734118,96.8732422 C38.3821655,89.9189226 45.4507513,86.9321717 52.7819517,87.1319759 C58.300352,87.2823741 62.5124534,88.7260071 71.1359438,92.7073936 C72.9854174,93.5612786 73.5051243,93.7996501 74.3842398,94.1927128 C80.8522884,97.0846524 85.1472107,98.2693333 89.6555033,97.9755727 C95.2605432,97.6103479 100.725169,94.727618 106.575397,88.5586624 L108.752205,90.6230033 C102.411902,97.3087344 96.2652663,100.551242 89.8505698,100.969224 C84.7357776,101.302504 80.037519,100.00657 73.1597277,96.9314297 C72.2651474,96.5314525 71.7402232,96.290688 69.8784271,95.4311138 C61.6200197,91.6182827 57.6758141,90.266467 52.7002202,90.1308624 C46.2024324,89.953772 39.8844553,92.6233616 33.0265882,99.0605846 Z M45.5,66.5 C38.872583,66.5 33.5,61.127417 33.5,54.5 C33.5,47.872583 38.872583,42.5 45.5,42.5 C52.127417,42.5 57.5,47.872583 57.5,54.5 C57.5,61.127417 52.127417,66.5 45.5,66.5 Z M45.5,63.5 C50.4705627,63.5 54.5,59.4705627 54.5,54.5 C54.5,49.5294373 50.4705627,45.5 45.5,45.5 C40.5294373,45.5 36.5,49.5294373 36.5,54.5 C36.5,59.4705627 40.5294373,63.5 45.5,63.5 Z M92.5,66.5 C85.872583,66.5 80.5,61.127417 80.5,54.5 C80.5,47.872583 85.872583,42.5 92.5,42.5 C99.127417,42.5 104.5,47.872583 104.5,54.5 C104.5,61.127417 99.127417,66.5 92.5,66.5 Z M92.5,63.5 C97.4705627,63.5 101.5,59.4705627 101.5,54.5 C101.5,49.5294373 97.4705627,45.5 92.5,45.5 C87.5294373,45.5 83.5,49.5294373 83.5,54.5 C83.5,59.4705627 87.5294373,63.5 92.5,63.5 Z" id="DENY"></path>
        </g>
    </g>
</svg>
