<?xml version="1.0" encoding="UTF-8"?>
<svg width="138px" height="138px" viewBox="0 0 138 138" version="1.1" xmlns="http://www.w3.org/2000/svg" xmlns:xlink="http://www.w3.org/1999/xlink">
    <g id="Assets" stroke="none" stroke-width="1" fill="none" fill-rule="evenodd">
        <g id="PUBLISH_FETCH_OK" fill-rule="nonzero" fill="#4CD964">
            <path d="M69,138 C30.8923523,138 0,107.107648 0,69 C0,30.8923523 30.8923523,0 69,0 C107.107648,0 138,30.8923523 138,69 C138,107.107648 107.107648,138 69,138 Z M21.9355957,58.6577148 L21.9355957,80.5 L25.3262207,80.5 L25.3262207,73.0375977 L30.0186035,73.0375977 C34.3022949,73.0375977 37.3145019,70.1010742 37.3145019,65.8325195 C37.3145019,61.5791016 34.3628418,58.6577148 30.1245605,58.6577148 L21.9355957,58.6577148 Z M25.3262207,61.5185547 L29.2314941,61.5185547 C32.1680176,61.5185547 33.8481934,63.0927734 33.8481934,65.8476562 C33.8481934,68.6025391 32.1680176,70.1918945 29.2163574,70.1918945 L25.3262207,70.1918945 L25.3262207,61.5185547 Z M53.6410645,64.5761719 L50.3715332,64.5761719 L50.3715332,73.7490234 C50.3715332,76.2314453 48.9486816,77.8662109 46.5873535,77.8662109 C44.3319824,77.8662109 43.1815918,76.5795898 43.1815918,74.1577148 L43.1815918,64.5761719 L39.9120605,64.5761719 L39.9120605,74.793457 C39.9120605,78.4414062 42.0312012,80.6816406 45.4975098,80.6816406 C47.9345215,80.6816406 49.523877,79.6674805 50.4320801,77.7602539 L50.5077637,77.7602539 L50.5077637,80.5 L53.6410645,80.5 L53.6410645,64.5761719 Z M65.441748,80.6665039 C69.4681152,80.6665039 72.0867676,77.487793 72.0867676,72.5380859 C72.0867676,67.6035156 69.4681152,64.409668 65.4568848,64.409668 C63.2015137,64.409668 61.3851074,65.4389648 60.4314941,67.2250977 L60.3558105,67.2250977 L60.3558105,58.6577148 L57.0862793,58.6577148 L57.0862793,80.5 L60.2649902,80.5 L60.2649902,77.7905273 L60.3255371,77.7905273 C61.3094238,79.637207 63.1106934,80.6665039 65.441748,80.6665039 Z M64.5638184,67.1948242 C67.0765137,67.1948242 68.726416,69.2988281 68.726416,72.5380859 C68.726416,75.8076172 67.0765137,77.8964844 64.5638184,77.8964844 C62.0359863,77.8964844 60.3406738,75.7470703 60.3406738,72.5380859 C60.3406738,69.359375 62.051123,67.1948242 64.5638184,67.1948242 Z M74.8508301,80.5 L78.1203613,80.5 L78.1203613,58.6577148 L74.8508301,58.6577148 L74.8508301,80.5 Z M81.6866699,80.5 L84.9562012,80.5 L84.9562012,64.5761719 L81.6866699,64.5761719 L81.6866699,80.5 Z M83.3214355,62.2451172 C84.3810059,62.2451172 85.2286621,61.4125977 85.2286621,60.3833008 C85.2286621,59.3237305 84.3810059,58.5063477 83.3214355,58.5063477 C82.277002,58.5063477 81.4293457,59.3237305 81.4293457,60.3833008 C81.4293457,61.4125977 82.277002,62.2451172 83.3214355,62.2451172 Z M88.1138184,69.1323242 C88.1138184,71.3422852 89.5669434,72.8105469 92.4429199,73.5068359 L95.288623,74.203125 C96.9536621,74.6269531 97.5591309,75.1567383 97.5591309,76.140625 C97.5591309,77.4121094 96.3330566,78.2143555 94.3804199,78.2143555 C92.3975098,78.2143555 91.1714355,77.3969727 90.9443848,75.8681641 L87.705127,75.8681641 C87.9473145,78.7744141 90.4751465,80.6967773 94.2290527,80.6967773 C98.1191895,80.6967773 100.843799,78.7290039 100.843799,75.8530273 C100.843799,73.5219727 99.6328613,72.3413086 96.423877,71.5693359 L93.7446777,70.9487305 C92.0947754,70.5400391 91.307666,69.9042969 91.307666,68.9506836 C91.307666,67.7094727 92.4883301,66.8920898 94.2593262,66.8920898 C96.0757324,66.8920898 97.2715332,67.7548828 97.4077637,69.1625977 L100.480518,69.1625977 C100.404834,66.347168 97.877002,64.3945312 94.3501465,64.3945312 C90.6416504,64.3945312 88.1138184,66.3168945 88.1138184,69.1323242 Z M103.607861,80.5 L106.877393,80.5 L106.877393,71.402832 C106.877393,68.875 108.360791,67.2099609 110.782666,67.2099609 C113.083447,67.2099609 114.264111,68.6328125 114.264111,70.9790039 L114.264111,80.5 L117.548779,80.5 L117.548779,70.328125 C117.548779,66.7255859 115.459912,64.3945312 111.96333,64.3945312 C109.526318,64.3945312 107.876416,65.378418 106.922803,67.2856445 L106.847119,67.2856445 L106.847119,58.6577148 L103.607861,58.6577148 L103.607861,80.5 Z" id="FETCH_OK"></path>
        </g>
    </g>
</svg>
